<?xml version="1.0" encoding="UTF-8" ?>
<!DOCTYPE svg PUBLIC "-//W3C//DTD SVG 1.1//EN" "http://www.w3.org/Graphics/SVG/1.1/DTD/svg11.dtd">
<svg width="1008pt" height="726pt" viewBox="0 0 1008 726" version="1.1" xmlns="http://www.w3.org/2000/svg">
<g id="#9f0000b2">
<path fill="#9f0000" opacity="0.70" d=" M 509.66 120.17 C 514.23 118.17 517.55 113.29 522.94 113.36 C 528.88 113.23 535.62 112.36 540.69 116.19 C 544.81 119.22 547.20 125.29 553.11 125.15 C 564.28 125.61 576.93 123.50 585.87 132.00 C 590.97 137.89 598.03 140.95 604.88 144.24 C 617.01 154.70 627.33 167.10 637.17 179.71 C 641.72 185.47 647.79 189.97 651.47 196.43 C 657.29 206.50 665.04 215.42 669.62 226.19 C 674.16 236.10 680.37 245.78 680.88 256.96 C 683.66 272.50 683.70 288.33 683.25 304.05 C 682.35 314.17 673.30 320.40 668.44 328.61 C 659.17 343.29 659.35 361.33 656.53 377.91 C 655.63 385.21 647.70 388.15 645.48 394.78 C 643.93 399.82 640.47 405.81 643.94 410.80 C 647.38 416.91 650.59 423.99 648.83 431.15 C 648.09 436.71 643.19 440.63 642.68 446.24 C 642.33 455.85 640.47 465.34 641.35 475.00 C 642.30 482.28 637.32 488.00 633.42 493.51 C 627.59 501.70 628.89 512.54 623.95 521.12 C 621.77 524.95 620.08 529.08 617.51 532.67 C 613.80 537.53 607.77 539.50 602.95 542.96 C 599.53 545.14 595.97 548.30 591.59 547.23 C 591.06 547.17 590.00 547.06 589.47 547.00 C 588.58 554.40 585.25 561.65 578.86 565.84 C 577.53 569.24 575.12 572.02 571.74 573.48 C 561.01 579.04 554.03 589.77 543.09 594.91 C 545.04 597.60 546.62 600.58 547.12 603.91 C 544.82 604.66 542.33 605.93 539.95 604.69 C 533.30 602.06 526.81 599.00 520.49 595.63 C 520.23 599.77 521.80 605.06 518.23 608.20 C 513.00 609.42 509.59 603.68 505.82 601.03 C 504.69 603.18 503.58 605.34 502.44 607.48 C 500.49 607.43 498.55 607.37 496.60 607.32 C 495.13 609.24 493.76 613.11 490.67 611.97 C 480.62 610.27 471.56 604.73 466.07 596.06 C 462.94 590.30 455.78 591.91 450.92 588.85 C 445.16 585.81 441.79 579.87 436.25 576.52 C 431.04 573.24 428.71 567.34 426.17 562.03 C 421.99 561.52 417.32 558.83 417.51 554.05 C 417.59 543.96 422.96 532.72 416.75 523.42 C 409.70 514.40 401.80 505.61 391.58 500.14 C 385.34 496.90 379.97 491.77 376.82 485.47 C 374.51 477.88 374.76 469.80 374.56 461.95 C 374.40 455.09 370.29 449.25 368.73 442.72 C 366.25 432.44 369.23 421.68 366.99 411.40 C 364.29 404.25 357.32 398.31 358.70 389.96 C 360.51 381.16 361.47 372.09 360.18 363.14 C 357.38 357.44 349.86 355.85 347.39 349.79 C 345.69 347.14 347.50 344.20 348.43 341.65 C 346.54 330.19 333.91 325.05 331.59 313.93 C 331.70 306.23 334.68 298.80 334.55 291.02 C 331.32 285.64 329.49 279.57 325.83 274.42 C 320.38 258.37 331.59 243.04 330.44 226.94 C 330.83 217.86 336.45 210.07 340.58 202.28 C 346.37 194.50 348.77 184.64 355.53 177.54 C 363.60 168.52 376.48 164.47 382.39 153.44 C 386.41 147.17 392.54 142.45 399.70 140.34 C 407.82 137.81 415.34 133.49 423.81 132.09 C 441.11 128.34 455.54 113.95 474.00 115.53 C 481.18 116.01 486.75 121.73 493.91 122.36 C 499.21 122.71 504.71 122.25 509.66 120.17 M 515.41 122.44 C 524.82 123.44 533.96 126.48 543.46 126.63 C 538.40 116.40 523.29 114.43 515.41 122.44 M 456.82 123.62 C 450.42 127.08 443.45 129.30 437.06 132.80 C 429.18 136.93 419.96 137.08 412.03 141.08 C 405.46 144.28 397.69 145.10 391.98 149.95 C 386.91 154.03 384.81 160.59 379.86 164.74 C 370.43 172.65 358.07 178.17 352.98 190.15 C 347.34 204.18 334.34 215.96 335.38 232.06 C 334.80 245.06 327.73 257.33 329.90 270.57 C 330.33 273.13 332.13 275.10 333.69 277.07 C 338.18 268.32 347.37 262.58 350.24 253.03 C 350.92 238.51 348.99 223.55 353.98 209.54 C 357.49 194.16 366.45 178.89 381.57 172.60 C 382.40 173.60 383.23 174.60 384.07 175.61 C 390.03 172.81 396.56 168.27 403.40 170.58 C 409.37 161.39 412.52 149.28 422.87 143.84 C 432.34 139.59 442.54 137.25 452.20 133.49 C 461.65 129.44 472.25 129.88 481.77 126.01 C 481.76 125.26 481.73 123.76 481.72 123.02 C 473.93 119.22 464.46 119.66 456.82 123.62 M 471.53 134.06 C 457.16 135.43 444.22 142.36 430.41 146.07 C 422.01 147.97 416.81 155.37 413.44 162.74 C 407.02 173.48 403.03 185.41 398.83 197.10 C 398.52 221.35 390.51 244.79 390.29 269.05 C 389.54 277.13 389.38 285.27 387.76 293.25 C 387.14 302.21 387.73 311.26 385.66 320.09 C 385.17 330.99 383.43 344.34 392.40 352.51 C 399.23 359.06 405.34 366.96 406.94 376.53 C 409.06 389.10 405.10 402.44 410.14 414.54 C 413.30 422.56 415.41 431.27 421.13 437.99 C 425.82 443.34 428.23 450.20 432.67 455.72 C 431.98 448.09 427.84 440.94 422.05 436.01 C 416.51 431.39 418.62 423.29 418.26 416.99 C 417.77 411.62 422.14 407.82 423.44 402.95 C 425.94 392.82 429.30 382.29 436.32 374.33 C 446.62 365.48 458.45 358.59 468.62 349.56 C 468.41 344.80 467.88 339.98 468.69 335.25 C 470.43 328.53 476.49 324.27 479.36 318.12 C 482.67 312.34 481.44 305.45 481.59 299.11 C 470.39 309.76 453.97 312.82 439.00 312.38 C 429.94 312.84 421.19 308.20 415.15 301.71 C 411.72 298.27 412.00 293.26 412.48 288.82 C 420.91 289.55 424.01 280.62 430.90 277.76 C 425.66 279.60 419.87 281.75 417.99 287.57 C 417.01 287.61 415.06 287.69 414.08 287.73 C 413.40 279.56 421.46 275.62 427.90 273.28 C 436.57 269.55 446.11 272.19 454.76 274.56 C 467.37 277.69 474.11 289.80 482.23 298.82 C 483.58 293.28 484.53 287.64 484.72 281.94 C 472.81 275.58 460.73 269.28 447.55 265.98 C 437.28 263.87 427.80 257.77 416.94 259.44 C 409.55 258.22 406.29 267.29 399.17 266.79 C 399.88 258.26 406.67 249.37 415.92 249.70 C 429.90 249.89 444.47 247.98 457.83 253.13 C 464.08 256.25 470.43 259.59 475.43 264.57 C 479.81 268.52 483.14 274.85 489.80 274.96 C 491.47 283.15 488.51 291.34 487.33 299.41 C 485.99 305.38 487.72 311.86 484.85 317.49 C 482.08 327.42 469.79 333.87 472.92 345.46 C 475.96 347.89 480.62 345.78 484.26 346.34 C 482.69 343.59 480.50 340.55 481.68 337.22 C 483.26 333.80 487.35 334.45 490.42 334.11 C 493.03 337.14 493.01 340.91 490.84 344.15 C 492.12 344.65 493.39 345.17 494.68 345.70 C 494.72 346.60 494.79 348.41 494.83 349.31 C 492.11 350.56 489.25 351.84 487.64 354.52 C 484.98 358.27 480.20 362.28 482.06 367.39 C 483.97 371.91 486.59 376.35 485.82 381.50 C 478.40 377.50 475.31 366.37 478.32 358.58 C 479.32 355.14 484.61 353.81 484.32 350.20 C 479.11 352.09 471.86 350.60 469.06 356.56 C 473.16 362.67 466.29 369.47 469.74 375.63 C 471.57 379.31 473.87 382.75 475.52 386.53 C 474.30 386.59 471.87 386.71 470.65 386.77 C 463.38 379.32 463.30 368.72 465.40 359.16 C 459.58 363.07 453.84 367.11 448.10 371.14 C 449.84 372.63 452.96 373.43 453.08 376.17 C 453.96 384.31 457.07 392.33 462.72 398.35 C 462.55 399.90 462.36 401.45 462.17 403.00 C 451.65 396.92 448.26 383.38 447.42 372.07 C 437.92 376.72 433.72 386.74 430.26 396.07 C 436.61 400.77 439.08 408.87 445.44 413.55 C 450.88 417.58 456.69 421.88 459.26 428.41 C 457.68 428.48 456.11 428.56 454.54 428.62 C 451.01 424.36 446.89 420.67 442.39 417.46 C 436.89 413.43 434.04 407.03 429.35 402.24 C 427.96 406.10 426.26 409.86 423.86 413.22 C 427.47 417.67 432.06 421.13 437.30 423.45 C 443.18 427.20 451.19 432.19 449.60 440.35 C 448.72 440.33 447.84 440.31 446.98 440.30 C 442.48 431.89 434.31 426.32 425.51 423.15 C 428.78 434.13 441.03 439.16 443.59 450.40 C 442.94 451.04 442.29 451.69 441.64 452.34 C 440.26 452.32 438.88 452.29 437.51 452.28 C 437.60 454.18 437.70 456.07 437.80 457.98 C 436.93 458.95 436.05 459.91 435.19 460.89 C 437.22 464.75 440.09 468.87 439.26 473.45 C 436.23 479.06 428.89 474.80 424.08 475.33 C 429.86 482.26 438.75 485.54 444.43 492.58 C 448.35 497.54 454.25 500.24 460.42 501.12 C 460.50 502.69 460.57 504.26 460.65 505.84 C 453.20 505.84 446.22 502.16 441.43 496.58 C 435.42 489.42 426.43 485.73 420.24 478.77 C 414.57 471.54 408.56 464.53 402.08 458.02 C 395.79 451.91 386.03 452.26 379.55 446.46 C 375.64 443.01 374.62 437.65 373.63 432.79 C 372.56 439.49 374.53 445.97 377.39 451.96 C 382.39 462.74 376.76 475.68 382.97 486.09 C 387.99 494.45 398.08 496.78 404.85 503.23 C 411.06 507.96 414.80 515.23 421.50 519.40 C 416.24 506.44 406.22 496.54 400.03 484.12 C 395.72 476.54 388.42 470.24 387.30 461.16 C 391.99 461.54 393.97 466.12 396.96 469.03 C 404.51 476.22 408.84 486.61 418.19 491.90 C 430.36 498.30 443.25 504.95 451.54 516.31 C 453.56 518.71 453.65 521.90 453.67 524.88 C 447.49 525.19 443.78 519.69 439.02 516.77 C 433.52 513.38 427.57 510.68 421.36 508.90 C 425.08 514.73 430.19 519.90 431.93 526.79 C 434.25 536.03 433.44 545.74 431.57 554.99 C 430.19 561.70 433.74 568.55 439.21 572.36 C 439.98 566.21 439.55 559.37 443.17 554.02 C 446.27 550.15 449.94 546.75 452.81 542.68 C 453.72 542.67 454.64 542.67 455.56 542.68 C 456.96 549.71 449.70 552.81 446.65 557.91 C 444.74 563.70 444.13 569.99 444.61 576.06 C 447.03 581.34 452.61 584.08 457.67 586.27 C 458.32 580.03 455.44 573.38 458.52 567.52 C 463.02 558.99 471.36 552.90 474.33 543.48 C 475.43 543.51 476.54 543.54 477.66 543.59 C 478.98 552.98 470.00 558.63 465.51 565.69 C 459.93 571.74 463.52 580.20 463.50 587.42 C 464.92 587.81 466.55 590.05 467.94 588.98 C 468.63 583.58 471.73 579.14 476.31 576.30 C 481.60 572.57 485.05 566.83 485.97 560.44 C 487.14 560.47 488.31 560.49 489.49 560.53 C 489.71 564.55 489.86 568.96 487.05 572.21 C 483.30 578.62 474.91 581.23 473.03 588.85 C 472.04 589.63 471.06 590.43 470.11 591.26 C 472.30 600.14 482.00 604.71 490.25 606.80 C 490.68 603.94 491.20 601.10 491.77 598.27 C 493.89 598.37 496.00 598.49 498.13 598.63 C 496.96 593.74 495.13 588.99 494.49 584.00 C 493.31 575.71 501.06 569.26 499.70 560.92 C 499.35 553.18 492.03 548.95 485.91 545.85 C 474.34 539.43 460.81 529.42 461.40 514.75 C 462.05 514.68 463.36 514.54 464.01 514.47 C 466.36 519.17 468.14 524.23 471.49 528.36 C 477.78 536.91 488.11 540.69 496.69 546.36 C 504.41 551.92 506.83 562.82 503.08 571.40 C 501.01 576.16 498.07 581.25 499.92 586.61 C 501.47 594.62 510.00 597.62 515.68 602.24 C 515.25 598.26 514.57 594.32 514.30 590.34 C 516.35 589.35 518.42 588.40 520.51 587.48 C 514.43 580.58 519.00 571.07 522.20 563.92 C 529.30 551.16 525.16 535.36 518.36 523.36 C 520.60 522.62 523.34 521.57 524.53 524.42 C 528.45 531.96 530.71 540.50 531.39 548.97 C 532.37 560.24 522.58 568.81 522.76 579.93 C 522.98 583.11 522.23 586.18 521.44 589.23 C 525.43 593.80 531.45 595.75 537.10 597.38 C 535.07 593.14 532.22 588.92 532.47 584.00 C 532.03 574.45 541.47 567.67 540.65 558.01 C 541.18 550.54 537.28 543.89 536.16 536.69 C 537.32 536.59 538.49 536.50 539.66 536.41 C 540.81 538.31 541.95 540.22 543.10 542.14 C 544.22 540.62 545.35 539.11 546.48 537.60 C 547.03 537.58 548.13 537.55 548.67 537.53 C 552.38 547.69 561.17 554.86 570.70 559.35 C 571.04 551.19 566.55 544.27 562.72 537.49 C 556.93 524.26 556.59 509.51 556.26 495.31 C 548.24 502.80 544.08 513.20 543.37 524.03 C 541.58 523.48 538.71 523.23 538.72 520.77 C 539.49 512.94 541.85 504.96 546.97 498.83 C 552.30 492.83 552.10 483.71 558.36 478.35 C 567.65 470.58 573.88 460.02 580.91 450.31 C 582.00 450.38 584.16 450.50 585.24 450.57 C 582.98 459.11 575.67 464.76 571.29 472.14 C 567.59 478.45 562.82 484.59 561.54 491.93 C 561.11 509.33 561.66 528.24 571.60 543.24 C 574.83 548.33 574.91 554.51 576.63 560.13 C 580.67 558.92 582.61 554.76 583.48 550.96 C 587.75 533.09 584.25 514.59 585.95 496.50 C 588.53 481.44 602.01 472.57 610.88 461.35 C 607.86 461.33 604.85 461.39 601.84 461.44 C 601.26 460.43 600.69 459.42 600.12 458.42 C 605.94 455.27 612.86 455.17 618.57 451.75 C 618.54 450.34 618.52 448.93 618.52 447.53 C 627.99 440.23 628.81 426.86 629.88 415.85 C 632.61 417.70 635.50 420.27 634.56 423.98 C 633.19 431.92 629.92 439.41 628.03 447.24 C 634.90 444.70 640.50 438.76 643.46 432.15 C 646.85 422.09 638.97 413.52 635.48 404.76 C 629.84 393.62 628.02 381.05 627.43 368.72 C 628.46 368.66 629.50 368.62 630.55 368.57 C 631.87 370.84 633.35 373.20 633.33 375.94 C 633.43 383.68 635.39 391.27 638.07 398.49 C 643.99 390.83 642.38 380.99 642.54 372.00 C 642.72 364.44 638.39 357.63 638.61 350.05 C 638.75 341.90 638.04 333.67 639.29 325.58 C 641.03 325.62 642.77 325.67 644.53 325.72 C 650.46 312.37 667.85 307.19 669.86 291.61 C 671.12 291.61 672.37 291.61 673.64 291.62 C 674.99 301.64 666.70 308.93 660.03 315.02 C 652.27 321.02 645.22 330.36 646.89 340.71 C 648.14 349.23 649.29 357.90 648.10 366.49 C 647.30 372.11 647.08 377.91 648.66 383.42 C 652.88 376.73 652.79 368.58 653.63 360.98 C 654.21 352.68 656.68 344.69 658.97 336.73 C 661.82 326.79 669.50 319.42 675.39 311.25 C 676.94 309.17 677.83 306.66 677.74 304.05 C 677.65 285.37 678.81 266.39 674.15 248.13 C 668.13 232.99 660.77 218.32 651.05 205.20 C 645.32 193.56 634.58 185.85 627.39 175.26 C 623.81 176.32 620.19 177.24 616.57 178.12 C 620.77 181.14 626.07 182.46 629.62 186.39 C 631.74 188.70 634.50 190.21 637.51 191.04 C 640.28 197.28 644.62 202.93 645.84 209.77 C 647.05 216.07 645.77 222.53 646.73 228.85 C 649.26 239.93 660.78 246.13 663.29 257.22 C 664.57 267.28 660.45 276.89 657.98 286.45 C 654.15 300.36 645.53 312.06 637.92 324.02 C 625.84 329.63 631.97 345.83 626.39 355.67 C 619.92 365.20 622.94 377.21 622.37 388.00 C 621.84 397.00 625.94 405.04 628.77 413.29 C 627.18 413.39 625.60 413.50 624.02 413.59 C 616.21 400.32 617.18 384.68 616.41 369.88 C 613.53 373.33 611.44 377.35 610.21 381.67 C 608.06 389.74 601.39 396.05 593.74 399.00 C 593.60 397.48 593.50 395.97 593.39 394.45 C 598.21 390.82 603.68 387.03 605.22 380.81 C 607.52 367.13 623.44 360.37 623.59 346.04 C 623.39 337.91 626.53 330.32 629.16 322.80 C 630.67 319.48 627.71 316.60 626.80 313.56 C 621.35 292.88 625.51 269.90 614.71 250.65 C 612.07 245.07 607.65 240.17 606.61 233.95 C 606.06 224.00 605.91 213.71 609.62 204.28 C 612.56 196.86 615.28 188.58 612.61 180.66 C 607.47 171.41 598.45 165.24 589.17 160.59 C 584.29 158.64 583.04 152.78 578.57 150.26 C 565.89 141.41 552.27 131.69 536.25 131.13 C 522.05 127.96 507.44 129.53 493.03 129.22 C 485.45 128.73 478.77 132.73 471.53 134.06 M 557.15 130.69 C 567.19 137.59 578.95 142.39 587.23 151.65 C 590.92 157.00 597.38 159.02 602.46 162.71 C 608.78 166.50 614.30 173.20 622.38 172.47 C 620.80 163.82 612.19 159.38 607.10 152.90 C 601.90 146.03 592.37 145.55 586.60 139.43 C 579.52 130.54 567.72 129.09 557.15 130.69 M 386.06 181.02 C 382.76 184.23 380.28 189.45 374.86 188.86 C 375.83 185.89 377.25 183.10 378.64 180.31 C 366.47 186.52 361.44 200.25 358.34 212.70 C 354.42 225.01 355.35 238.03 355.62 250.75 C 362.20 244.13 368.72 236.97 372.84 228.52 C 376.04 215.50 377.48 201.17 386.26 190.38 C 386.84 190.42 387.99 190.50 388.57 190.54 C 389.23 191.10 389.89 191.65 390.56 192.21 C 383.47 202.17 380.78 214.28 378.74 226.11 C 377.65 232.19 373.93 237.30 370.05 241.93 C 363.03 250.26 356.57 259.15 348.36 266.39 C 344.40 269.95 341.55 274.49 338.83 279.02 C 351.32 262.86 373.20 254.51 380.66 234.42 C 382.06 234.49 383.45 234.55 384.85 234.62 C 384.25 239.50 382.28 244.17 379.06 247.91 C 370.67 257.87 360.17 265.72 350.22 274.02 C 351.44 274.88 352.67 275.74 353.90 276.61 C 352.74 287.09 347.00 296.10 343.35 305.78 C 341.97 309.91 335.12 312.76 338.29 317.54 C 343.11 324.88 352.60 330.16 351.86 340.18 C 354.87 339.44 357.86 338.59 360.78 337.54 C 362.99 326.79 350.22 325.55 344.47 319.57 C 343.01 311.43 348.18 304.73 350.77 297.49 C 354.32 284.26 368.14 278.13 375.13 267.05 C 378.68 261.93 379.97 254.74 386.30 252.10 C 388.34 239.40 390.67 226.74 392.37 213.98 C 393.34 207.38 391.40 200.39 394.27 194.12 C 397.09 187.53 399.79 180.88 401.94 174.03 C 396.41 175.63 390.20 176.66 386.06 181.02 M 618.57 185.79 C 619.81 196.87 612.58 206.24 611.71 217.00 C 611.29 225.53 610.06 234.98 615.65 242.22 C 627.06 258.78 627.87 279.43 629.63 298.75 C 637.94 289.70 644.47 277.20 640.70 264.67 C 638.35 254.25 630.06 246.57 627.36 236.33 C 625.01 221.77 628.06 207.15 628.75 192.59 C 626.02 189.46 622.92 186.31 618.57 185.79 M 633.91 197.13 C 631.95 208.99 631.98 221.04 632.29 233.02 C 632.43 240.28 637.71 245.77 640.89 251.87 C 644.19 258.78 647.37 266.19 646.59 274.04 C 646.65 284.99 639.80 294.13 633.32 302.32 C 629.35 307.00 631.40 313.83 634.84 318.21 C 644.87 306.77 651.58 292.62 655.22 277.90 C 656.89 271.18 659.44 264.24 658.08 257.24 C 655.32 248.45 646.78 243.17 643.47 234.64 C 637.71 222.62 645.08 206.90 633.91 197.13 M 426.79 254.78 C 443.18 259.21 459.80 263.80 475.25 271.15 C 469.07 265.05 461.86 259.84 453.64 256.90 C 444.91 254.50 435.76 254.62 426.79 254.78 M 369.67 280.69 C 363.73 284.83 361.49 292.24 361.52 299.18 C 365.60 287.27 372.88 275.53 385.36 271.15 C 385.38 267.69 385.39 264.23 385.27 260.78 C 380.07 267.42 376.71 275.64 369.67 280.69 M 338.54 302.18 C 343.44 293.78 348.14 284.82 348.92 274.95 C 341.49 281.99 338.45 292.14 338.54 302.18 M 365.38 307.70 C 369.86 301.18 373.45 293.77 380.33 289.33 C 384.81 286.76 384.47 281.18 384.58 276.72 C 373.14 282.80 366.71 295.20 365.38 307.70 M 422.85 291.27 C 434.87 301.59 451.73 296.62 466.03 296.19 C 464.84 288.46 458.69 280.25 450.03 281.43 C 439.93 280.46 428.51 281.60 422.85 291.27 M 365.90 318.12 C 364.81 320.67 362.53 323.37 363.70 326.28 C 367.57 336.20 364.68 347.32 368.15 357.35 C 369.88 363.01 371.53 368.93 375.60 373.44 C 378.88 378.32 384.74 382.06 384.95 388.46 C 383.81 388.42 382.68 388.39 381.55 388.36 C 376.18 382.33 371.21 375.97 366.61 369.34 C 366.13 373.19 365.22 377.11 365.87 381.00 C 368.84 386.25 374.49 389.17 378.59 393.46 C 378.56 394.63 378.53 395.81 378.50 397.00 C 372.64 396.54 369.21 391.14 364.40 388.47 C 362.28 398.19 370.11 404.97 374.88 412.27 C 383.58 410.83 386.91 419.71 390.02 425.90 C 394.93 431.29 402.83 432.74 407.87 438.11 C 413.73 444.45 419.34 451.10 426.09 456.55 C 424.40 450.94 421.29 445.90 417.52 441.48 C 411.59 434.61 408.96 425.75 406.03 417.35 C 404.42 412.38 399.60 409.48 397.59 404.74 C 393.63 395.97 392.25 386.04 386.68 378.01 C 383.28 373.06 377.69 370.47 373.02 366.97 C 368.91 364.01 370.67 358.30 370.24 354.00 C 369.80 348.09 372.27 342.63 373.31 336.95 C 374.21 326.56 374.94 316.14 376.38 305.83 C 378.08 306.67 379.78 307.53 381.47 308.40 C 382.15 303.57 382.64 298.71 382.44 293.84 C 374.42 299.94 370.61 309.56 365.90 318.12 M 416.56 294.99 C 421.05 303.23 430.77 307.83 440.00 306.64 C 451.30 307.49 462.60 305.38 472.77 300.37 C 459.51 301.22 446.21 304.08 432.90 301.97 C 427.04 300.60 422.43 296.27 416.56 294.99 M 349.10 316.95 C 351.37 318.36 353.69 319.72 356.06 320.97 C 356.13 312.65 356.11 304.33 356.49 296.03 C 354.91 303.35 349.54 309.33 349.10 316.95 M 375.68 362.20 C 379.25 365.79 384.29 367.53 387.72 371.31 C 395.23 379.19 397.09 390.31 401.32 399.96 C 403.24 393.64 402.40 386.66 402.35 379.98 C 401.64 369.14 393.61 360.89 386.47 353.50 C 381.67 348.62 381.55 341.36 379.87 335.13 C 375.80 343.46 374.39 353.02 375.68 362.20 M 351.76 345.67 C 352.74 350.99 357.76 353.61 361.73 356.53 C 361.64 352.04 361.46 347.55 360.75 343.11 C 357.73 343.89 354.73 344.73 351.76 345.67 M 378.69 417.74 C 378.33 425.65 377.27 434.38 381.66 441.45 C 386.18 446.05 392.80 448.00 399.06 448.71 C 394.95 444.59 388.94 443.22 384.88 439.09 C 381.17 434.11 381.36 427.42 382.66 421.62 C 381.35 420.31 380.03 419.01 378.69 417.74 M 386.62 432.06 C 389.55 440.05 399.74 440.09 404.01 446.94 C 406.77 451.43 410.74 454.89 414.57 458.44 C 419.45 462.86 422.28 471.05 430.05 470.77 C 423.63 463.25 417.82 455.19 410.54 448.44 C 404.58 440.66 396.21 434.43 386.62 432.06 M 617.77 457.73 C 614.19 470.11 601.12 476.07 595.10 487.00 C 589.39 495.17 590.36 505.60 590.73 515.02 C 591.91 524.68 591.31 534.50 589.47 544.04 C 590.49 544.05 591.50 544.06 592.53 544.07 C 597.65 539.85 603.53 536.73 609.23 533.38 C 614.10 530.57 615.97 525.02 618.72 520.45 C 623.75 513.24 620.73 504.08 621.68 495.94 C 622.21 479.33 633.24 465.82 636.27 449.82 C 629.63 451.24 623.70 454.59 617.77 457.73 M 627.36 492.44 C 633.41 486.53 639.06 478.12 635.32 469.38 C 631.39 476.51 627.82 484.18 627.36 492.44 M 410.88 493.48 C 417.35 504.41 431.30 504.92 440.06 512.87 C 441.18 513.49 442.45 513.63 443.72 513.77 C 441.15 509.08 435.58 508.60 431.78 505.42 C 425.31 500.59 417.81 497.52 410.88 493.48 M 423.53 521.18 C 423.65 526.49 424.96 531.72 424.71 537.05 C 424.68 543.62 421.35 550.14 423.70 556.66 C 427.00 553.65 428.01 549.34 427.65 545.03 C 427.25 537.04 429.55 527.69 423.53 521.18 M 544.28 543.67 C 544.55 550.30 546.61 556.94 545.28 563.59 C 543.94 569.21 540.44 573.96 538.34 579.28 C 536.90 583.05 536.75 588.33 540.93 590.42 C 542.26 581.39 547.78 573.63 548.74 564.47 C 550.87 557.18 549.79 549.22 544.28 543.67 M 547.94 585.58 C 555.96 579.73 562.71 572.11 571.74 567.70 C 571.73 567.16 571.70 566.08 571.69 565.54 C 565.66 563.31 560.45 559.52 555.62 555.37 C 553.69 565.61 551.45 575.75 547.94 585.58 Z" />
<path fill="#9f0000" opacity="0.70" d=" M 424.44 186.15 C 440.75 182.76 456.04 190.30 471.86 192.64 C 492.83 197.85 514.58 196.72 535.99 196.76 C 548.32 196.67 558.81 189.43 570.27 186.13 C 570.29 187.47 570.34 188.81 570.37 190.15 C 560.15 196.29 548.74 200.31 537.00 202.25 C 507.41 203.50 477.45 201.06 449.01 192.41 C 441.00 190.47 432.64 191.62 424.53 190.30 C 424.49 188.92 424.46 187.53 424.44 186.15 Z" />
<path fill="#9f0000" opacity="0.70" d=" M 424.41 209.90 C 434.13 205.27 445.71 208.28 455.73 210.53 C 473.89 219.19 494.68 218.83 514.16 215.99 C 535.89 214.47 557.67 212.36 579.49 214.02 C 584.05 214.83 591.15 215.64 590.98 221.74 C 586.97 221.06 583.09 219.68 579.01 219.41 C 553.97 218.75 528.87 219.21 503.98 222.20 C 488.78 224.83 472.90 222.45 458.59 216.97 C 448.01 211.93 436.04 213.64 424.73 213.40 C 424.62 212.23 424.52 211.07 424.41 209.90 Z" />
<path fill="#9f0000" opacity="0.70" d=" M 542.53 250.74 C 559.78 244.02 581.97 242.33 596.96 255.10 C 600.98 258.41 606.93 261.27 606.78 267.30 C 605.91 268.20 605.04 269.10 604.19 270.00 C 595.07 267.21 589.13 258.50 579.88 255.94 C 573.24 254.52 566.41 256.24 560.49 259.30 C 549.22 265.03 537.36 269.44 525.78 274.46 C 522.82 275.43 521.51 278.55 520.91 281.36 C 519.45 292.59 521.75 303.82 521.56 315.07 C 521.48 322.80 528.20 327.59 531.92 333.55 C 533.96 339.74 532.46 346.67 527.97 351.43 C 517.09 352.52 506.34 350.28 495.48 350.57 C 495.39 349.39 495.23 347.02 495.15 345.83 C 499.54 345.57 503.94 345.54 508.34 345.51 C 508.26 342.17 508.25 338.83 508.35 335.49 C 510.08 335.36 511.82 335.23 513.56 335.10 C 518.01 338.41 515.88 343.21 513.33 346.95 C 517.58 346.55 521.90 346.83 526.11 346.07 C 528.24 341.78 528.59 335.71 524.85 332.18 C 520.50 327.45 516.35 321.69 516.47 314.96 C 516.67 302.76 514.72 290.61 515.74 278.41 C 511.82 276.39 507.48 271.97 509.01 267.32 C 516.37 255.73 531.84 257.36 542.53 250.74 M 539.08 257.76 C 530.70 261.58 520.68 261.88 513.73 268.53 C 514.16 275.34 520.99 271.14 524.75 269.60 C 537.47 263.61 550.98 259.30 563.19 252.26 C 554.77 250.46 546.59 254.44 539.08 257.76 Z" />
<path fill="#9f0000" opacity="0.70" d=" M 535.74 275.83 C 542.86 272.55 549.89 267.99 557.90 267.57 C 570.46 268.15 581.76 275.08 591.41 282.64 C 596.40 286.32 598.79 292.15 600.40 297.93 C 595.94 309.67 584.89 319.36 571.98 319.50 C 560.88 318.31 549.46 315.41 540.52 308.39 C 536.06 304.82 530.96 302.25 525.59 300.35 C 524.72 291.37 526.84 280.18 535.74 275.83 M 541.78 278.24 C 535.27 280.59 530.34 286.59 531.14 293.79 C 539.31 283.18 551.03 275.04 564.83 274.82 C 557.80 268.98 548.75 275.33 541.78 278.24 M 534.63 298.31 C 545.41 301.74 556.88 300.15 568.00 300.61 C 576.33 300.80 585.19 301.11 592.47 296.35 C 586.32 289.47 577.91 285.22 569.91 280.92 C 555.84 277.58 541.67 286.43 534.63 298.31 M 545.05 305.56 C 551.76 310.58 560.06 312.61 568.17 314.01 C 577.43 315.96 586.95 310.67 592.13 303.14 C 576.77 307.45 560.76 305.02 545.05 305.56 Z" />
<path fill="#9f0000" opacity="0.70" d=" M 506.38 275.87 C 506.47 274.59 507.25 274.00 508.72 274.10 C 511.16 275.90 510.45 279.36 510.60 282.01 C 510.15 293.38 510.89 305.00 514.64 315.83 C 516.02 319.81 516.92 325.18 512.96 328.00 C 507.85 333.38 498.31 338.29 492.06 331.95 C 489.24 328.72 484.06 324.79 486.07 320.08 C 492.09 318.84 492.97 330.71 499.69 330.29 C 504.17 328.98 509.22 326.09 511.17 321.86 C 505.35 307.22 505.80 291.33 506.38 275.87 Z" />
<path fill="#9f0000" opacity="0.70" d=" M 431.90 286.32 C 432.72 286.28 434.35 286.22 435.17 286.18 C 436.13 289.16 436.18 292.31 435.35 295.33 C 434.43 295.34 432.59 295.36 431.67 295.37 C 430.88 292.37 430.93 289.27 431.90 286.32 M 432.01 288.23 C 432.03 290.07 432.07 291.91 432.13 293.76 C 432.83 293.83 434.24 293.96 434.94 294.02 C 434.96 291.97 434.98 289.92 435.00 287.88 C 434.25 287.97 432.76 288.14 432.01 288.23 Z" />
<path fill="#9f0000" opacity="0.70" d=" M 438.70 286.08 C 439.62 286.24 440.54 286.40 441.47 286.56 C 441.46 288.73 441.44 290.91 441.41 293.09 C 442.03 293.61 443.26 294.66 443.87 295.18 C 441.80 295.17 439.73 295.14 437.66 295.10 C 438.44 294.57 439.98 293.51 440.76 292.98 C 440.15 290.65 439.51 288.34 438.70 286.08 Z" />
<path fill="#9f0000" opacity="0.70" d=" M 446.34 286.07 C 446.94 286.19 448.13 286.44 448.73 286.56 C 448.73 288.74 448.71 290.91 448.69 293.09 C 449.31 293.61 450.56 294.65 451.19 295.16 C 449.06 295.16 446.94 295.14 444.83 295.10 C 445.60 294.60 447.16 293.59 447.94 293.08 C 447.48 290.73 446.95 288.39 446.34 286.07 Z" />
<path fill="#9f0000" opacity="0.70" d=" M 456.14 296.23 C 450.77 294.81 452.23 288.32 454.97 285.07 C 458.30 288.08 458.14 292.52 456.14 296.23 M 454.20 293.74 C 457.50 294.35 456.05 289.16 456.44 287.24 C 453.27 287.91 453.29 291.30 454.20 293.74 Z" />
<path fill="#9f0000" opacity="0.70" d=" M 551.90 286.32 C 552.72 286.28 554.35 286.22 555.17 286.18 C 556.12 289.14 556.18 292.26 555.37 295.26 C 554.46 295.25 552.63 295.23 551.72 295.22 C 550.84 292.28 550.94 289.22 551.90 286.32 M 552.00 288.23 C 552.03 290.07 552.08 291.91 552.14 293.75 C 552.84 293.82 554.24 293.95 554.94 294.02 C 554.96 291.97 554.98 289.92 555.00 287.88 C 554.25 287.97 552.75 288.14 552.00 288.23 Z" />
<path fill="#9f0000" opacity="0.70" d=" M 558.70 286.08 C 559.62 286.24 560.54 286.39 561.47 286.55 C 561.45 288.72 561.44 290.89 561.42 293.07 C 562.01 293.59 563.20 294.63 563.80 295.16 C 561.72 295.15 559.66 295.12 557.60 295.07 C 558.64 294.39 559.69 293.71 560.75 293.04 C 560.16 290.69 559.52 288.36 558.70 286.08 Z" />
<path fill="#9f0000" opacity="0.70" d=" M 566.34 286.07 C 566.94 286.20 568.14 286.44 568.73 286.57 C 568.73 288.74 568.71 290.92 568.69 293.10 C 569.30 293.60 570.52 294.61 571.14 295.11 C 569.04 295.12 566.95 295.10 564.87 295.07 C 565.64 294.57 567.18 293.59 567.95 293.09 C 567.48 290.73 566.95 288.39 566.34 286.07 Z" />
<path fill="#9f0000" opacity="0.70" d=" M 574.03 295.30 C 571.23 292.22 572.79 287.96 574.98 285.06 C 578.15 287.55 579.45 295.40 574.03 295.30 M 573.89 294.75 C 577.10 293.49 576.38 289.97 576.45 287.24 C 572.69 288.01 573.99 292.05 573.89 294.75 Z" />
<path fill="#9f0000" opacity="0.70" d=" M 528.98 352.03 C 530.20 351.31 531.45 350.61 532.75 350.01 C 537.67 354.43 541.62 359.88 546.97 363.85 C 554.06 368.72 559.11 375.90 566.23 380.76 C 572.37 388.04 575.05 397.66 577.91 406.60 C 580.42 417.25 588.37 425.99 589.76 436.93 C 590.71 441.59 587.33 445.03 584.32 448.01 C 583.19 447.83 580.94 447.48 579.81 447.31 C 581.45 443.27 586.84 439.79 584.61 434.99 C 583.30 431.27 581.85 427.51 579.55 424.28 C 571.41 428.25 570.61 439.59 562.51 443.39 C 554.45 443.80 549.65 433.57 550.26 426.45 C 551.50 426.49 552.76 426.54 554.01 426.60 C 555.29 430.48 556.95 434.24 559.22 437.65 C 560.38 437.67 561.53 437.71 562.70 437.75 C 566.69 431.12 570.81 424.49 576.62 419.27 C 575.68 416.28 574.78 413.28 573.91 410.28 C 569.03 417.30 561.18 421.45 552.52 420.57 C 552.53 419.03 552.56 417.50 552.60 415.97 C 557.52 415.11 563.56 415.14 566.76 410.64 C 571.18 405.31 570.45 397.43 567.12 391.75 C 565.31 398.51 560.97 407.34 552.64 406.55 C 552.65 405.63 552.67 404.72 552.70 403.81 C 557.64 400.40 562.23 395.55 561.56 389.04 C 562.70 383.01 556.87 379.53 552.76 376.51 C 552.79 382.69 552.39 389.01 549.49 394.60 C 548.02 394.56 546.56 394.52 545.11 394.49 C 547.00 387.20 548.60 379.61 547.20 372.08 C 545.12 368.25 541.34 365.75 538.47 362.55 C 539.37 370.51 538.51 378.82 534.05 385.67 C 532.09 386.52 530.36 385.09 530.55 383.06 C 530.95 378.81 533.64 375.20 534.29 371.01 C 535.60 365.77 529.27 361.70 532.37 356.62 C 531.20 355.11 530.13 353.53 528.98 352.03 Z" />
<path fill="#9f0000" opacity="0.70" d=" M 499.27 353.22 C 501.24 353.27 503.21 353.36 505.19 353.47 C 505.31 361.61 510.26 368.33 512.69 375.83 C 514.59 381.43 520.59 383.45 525.80 384.69 C 525.74 385.81 525.63 388.04 525.57 389.16 C 522.69 388.19 519.83 386.90 516.72 387.42 C 511.69 383.88 507.69 379.00 505.99 373.01 C 502.35 376.50 499.26 381.18 493.99 382.29 C 493.69 377.89 497.06 375.02 499.01 371.53 C 501.53 365.68 499.02 359.31 499.27 353.22 Z" />
<path fill="#9f0000" opacity="0.70" d=" M 435.65 390.60 C 435.19 388.19 437.97 387.63 439.69 387.14 C 441.42 393.01 443.03 400.04 448.82 403.26 C 452.82 405.56 460.27 405.35 458.78 411.86 C 447.25 410.76 437.15 402.36 435.65 390.60 Z" />
<path fill="#9f0000" opacity="0.70" d=" M 470.00 395.81 C 474.22 391.93 478.63 386.77 484.97 387.36 C 496.64 387.82 508.82 385.67 520.04 389.65 C 533.81 388.53 547.35 400.54 547.90 414.29 C 542.45 413.24 541.16 407.17 538.49 403.15 C 529.29 407.45 519.04 408.61 508.99 408.59 C 498.64 408.54 488.13 409.41 478.00 406.79 C 472.88 405.42 467.87 407.11 463.14 408.93 C 463.53 403.80 466.19 399.17 470.00 395.81 M 472.66 401.01 C 482.38 402.54 492.11 404.25 502.00 403.72 C 513.06 403.17 524.74 403.79 535.03 399.04 C 520.01 391.17 502.40 392.29 485.96 392.37 C 480.08 391.95 475.82 396.70 472.66 401.01 Z" />
<path fill="#9f0000" opacity="0.70" d=" M 606.81 414.58 C 607.58 414.55 609.11 414.48 609.88 414.45 C 615.84 420.82 615.22 430.21 613.82 438.14 C 610.29 444.19 604.43 452.02 596.53 450.83 C 596.48 449.70 596.43 448.57 596.40 447.45 C 602.79 444.27 610.51 439.20 609.72 431.01 C 610.65 425.22 607.19 420.20 606.81 414.58 Z" />
<path fill="#9f0000" opacity="0.70" d=" M 499.13 425.14 C 505.84 426.35 511.24 432.08 513.15 438.46 C 515.26 450.65 507.69 461.48 506.16 473.26 C 504.76 473.51 503.37 473.74 502.00 474.07 C 500.88 477.85 503.96 481.60 505.07 485.17 C 509.71 478.47 516.17 473.23 520.64 466.45 C 524.64 456.63 523.35 445.64 525.67 435.40 C 527.28 435.46 528.90 435.52 530.52 435.60 C 528.79 446.06 529.37 457.00 525.89 467.11 C 520.86 476.73 511.07 482.90 506.95 493.21 C 504.81 492.15 502.33 491.21 501.32 488.85 C 496.62 479.43 494.63 468.57 487.69 460.34 C 482.36 453.92 474.85 447.75 475.24 438.56 C 476.50 438.54 477.78 438.54 479.05 438.54 C 481.24 445.99 486.48 451.69 491.64 457.22 C 495.54 461.20 496.55 467.47 500.77 470.95 C 503.72 461.14 508.69 451.42 508.36 440.96 C 508.27 434.03 498.97 432.12 499.13 425.14 Z" />
<path fill="#9f0000" opacity="0.70" d=" M 551.24 448.23 C 556.93 450.22 555.65 457.98 554.21 462.53 C 547.69 481.95 526.10 491.35 519.35 510.72 C 518.00 513.99 516.00 519.29 511.53 518.21 C 507.57 516.05 505.49 511.75 502.07 508.95 C 490.10 499.08 476.24 490.55 468.74 476.44 C 465.89 470.86 460.16 466.43 460.24 459.70 C 461.36 459.62 462.48 459.54 463.62 459.47 C 470.79 469.56 476.08 481.26 485.60 489.47 C 494.83 497.04 504.65 503.93 512.91 512.62 C 518.88 493.41 536.97 482.48 547.42 466.21 C 551.57 460.90 547.71 453.56 551.24 448.23 Z" />
<path fill="#9f0000" opacity="0.70" d=" M 473.75 511.14 C 477.89 510.65 480.98 513.47 483.92 515.90 C 493.65 522.59 501.86 532.44 514.32 533.84 C 514.33 535.09 514.34 536.35 514.36 537.61 C 505.19 538.58 497.07 533.37 490.76 527.28 C 485.15 521.85 476.13 519.29 473.75 511.14 Z" />
</g>
</svg>
